<?xml version="1.0" standalone="no"?>
<!DOCTYPE svg PUBLIC "-//W3C//DTD SVG 20010904//EN"
 "http://www.w3.org/TR/2001/REC-SVG-20010904/DTD/svg10.dtd">
<svg version="1.0" xmlns="http://www.w3.org/2000/svg"
 width="500.000000pt" height="500.000000pt" viewBox="0 0 500.000000 500.000000"
 preserveAspectRatio="xMidYMid meet">
<metadata>
Created by potrace 1.11, written by Peter Selinger 2001-2013
</metadata>
<g transform="translate(0.000000,500.000000) scale(0.100000,-0.100000)"
fill="#000000" stroke="none">
<path d="M2450 4000 c0 -5 7 -10 15 -10 8 0 15 5 15 10 0 6 -7 10 -15 10 -8 0
-15 -4 -15 -10z"/>
<path d="M2408 3965 c-2 -2 -30 -5 -64 -9 -335 -35 -663 -273 -806 -586 -110
-240 -127 -524 -46 -765 89 -265 292 -495 541 -610 42 -20 45 -23 25 -28 -35
-10 -14 -19 49 -22 32 -1 76 -7 98 -13 166 -45 353 -47 510 -5 33 8 87 16 119
17 41 1 61 6 64 15 3 10 -1 12 -17 8 -38 -9 -23 2 52 39 161 82 304 207 396
349 52 79 106 185 117 230 3 12 25 37 49 54 84 60 115 97 115 137 l0 37 -38
-39 c-20 -21 -50 -50 -65 -64 l-28 -24 6 32 c21 120 26 285 11 363 -26 140
-70 264 -128 364 -57 98 -90 139 -175 222 -163 161 -351 253 -583 288 -45 7
-197 14 -202 10z m307 -54 c284 -72 527 -266 658 -526 61 -121 102 -273 106
-391 2 -61 0 -72 -21 -91 l-24 -22 -2 72 c-14 461 -341 841 -797 925 -47 9
-285 8 -335 -1 -128 -24 -317 -106 -402 -175 -135 -109 -220 -214 -288 -357
-69 -144 -95 -258 -94 -420 1 -162 25 -269 94 -410 96 -198 247 -353 435 -445
28 -14 52 -28 53 -32 2 -5 11 -8 20 -8 10 0 55 -12 102 -26 114 -36 325 -42
446 -14 110 25 178 44 184 50 3 4 37 23 75 44 182 98 331 254 413 432 17 35
32 53 53 61 16 6 29 7 29 2 0 -34 -113 -227 -175 -299 -152 -176 -376 -311
-517 -311 -32 0 -58 -5 -58 -10 0 -5 6 -10 13 -10 6 -1 -10 -7 -38 -14 -32 -8
-101 -11 -195 -8 -186 4 -181 4 -174 25 5 16 -2 18 -61 18 -128 0 -306 99
-467 262 -54 54 -98 102 -98 107 0 5 -17 35 -39 67 -97 149 -151 347 -145 542
3 113 8 149 35 252 44 165 134 317 263 445 154 152 312 236 531 280 96 20 313
12 420 -14z m-60 -61 c62 -12 165 -44 200 -63 11 -6 23 -10 27 -9 3 1 12 -5
18 -13 7 -8 17 -15 22 -15 18 0 133 -84 192 -139 138 -132 233 -297 272 -476
21 -94 30 -256 15 -282 -27 -52 -178 -126 -280 -137 -88 -9 -115 9 -143 99
-27 85 -93 84 -227 -4 -51 -33 -101 -61 -111 -61 -10 0 -33 17 -52 39 -20 23
-40 37 -52 35 -21 -3 -28 -12 104 128 61 65 75 76 94 69 62 -24 139 13 229
108 81 86 102 123 87 152 -6 11 -15 19 -20 17 -5 -2 -45 -38 -88 -80 -77 -76
-112 -95 -112 -62 0 9 15 33 33 53 109 124 130 158 101 168 -6 2 -53 -32 -105
-76 -85 -72 -119 -88 -119 -57 0 6 38 51 84 99 73 77 81 89 65 97 -28 15 -57
-1 -143 -81 -52 -48 -87 -90 -102 -122 -22 -48 -23 -64 -10 -122 6 -27 1 -35
-43 -74 -48 -42 -52 -44 -112 -43 -35 0 -70 -3 -79 -8 -12 -6 -30 5 -73 46
-50 50 -55 58 -46 80 33 88 -33 198 -154 257 -182 88 -288 -12 -205 -195 58
-126 151 -187 254 -164 28 6 36 1 99 -65 52 -54 73 -69 85 -63 8 5 27 8 43 6
l27 -3 -38 -37 c-22 -20 -109 -104 -196 -186 -95 -91 -156 -156 -156 -168 0
-24 55 -78 79 -78 10 0 72 57 141 130 l123 130 76 -2 c73 -3 77 -4 108 -38
l32 -35 -27 -5 c-27 -5 -118 -4 -204 3 -40 3 -47 1 -52 -17 -3 -11 -4 -22 -2
-23 11 -12 236 -18 301 -9 26 3 38 -5 95 -65 36 -38 72 -69 81 -69 23 0 57 28
74 60 14 27 14 29 -35 76 l-49 47 75 50 c63 42 74 53 68 71 -4 11 -7 22 -9 23
-1 2 -39 -22 -85 -52 l-84 -55 -33 32 c-35 34 -41 48 -20 48 7 0 47 23 88 51
52 36 84 52 108 53 33 1 36 -1 48 -45 23 -81 82 -120 169 -114 89 7 153 28
237 77 26 15 50 28 52 28 5 0 -20 -99 -33 -132 -9 -21 -23 -31 -68 -44 -72
-21 -214 -16 -261 9 -38 20 -44 10 -10 -14 58 -42 176 -61 271 -44 l38 8 -23
-44 c-89 -175 -236 -322 -416 -415 -69 -35 -84 -39 -157 -40 -134 -2 -143 -3
-126 -14 8 -5 40 -10 70 -11 l55 -1 -65 -15 c-110 -25 -324 -22 -415 6 -28 9
-27 9 17 10 48 1 78 8 78 20 0 3 -48 6 -107 5 l-108 -1 -93 48 c-104 54 -161
96 -245 184 -102 104 -189 254 -222 380 -8 31 -16 59 -19 63 -7 12 -18 124
-19 197 -2 361 200 685 529 848 173 86 394 115 589 77z m-165 -905 c-22 -23
-41 -32 -67 -33 -34 -1 -35 -1 -19 17 11 13 14 21 7 26 -23 14 -9 20 49 21
l61 1 -31 -32z m985 -137 c-16 -117 -26 -145 -60 -161 l-32 -15 13 38 c8 22
17 59 20 82 5 35 45 98 61 98 2 0 1 -19 -2 -42z m-948 -42 c-30 -32 -82 -52
-92 -36 -6 10 55 64 80 71 40 11 45 -2 12 -35z"/>
<path d="M2445 3921 c-7 -13 -7 -13 23 -16 13 -1 21 2 19 9 -5 15 -34 20 -42
7z"/>
<path d="M2420 3843 c0 -9 15 -13 45 -13 30 0 45 4 45 13 0 9 -15 13 -45 13
-29 -1 -45 -5 -45 -13z"/>
<path d="M2420 3757 c0 -17 82 -16 88 1 2 8 -11 12 -42 12 -31 0 -46 -4 -46
-13z"/>
<path d="M2448 3682 c-32 -7 -19 -22 18 -22 23 0 34 4 32 12 -4 12 -24 17 -50
10z"/>
<path d="M2430 3590 c0 -11 2 -12 43 -14 16 -1 27 3 27 11 0 8 -13 13 -35 13
-19 0 -35 -4 -35 -10z"/>
<path d="M2442 3512 c-27 -9 -9 -22 30 -22 32 0 39 3 30 12 -12 12 -40 17 -60
10z"/>
<path d="M2430 3414 c0 -9 11 -13 33 -11 17 2 32 7 32 12 0 6 -15 10 -32 11
-21 1 -33 -4 -33 -12z"/>
<path d="M2426 3331 c-8 -13 10 -17 50 -13 19 2 31 8 28 13 -7 12 -71 12 -78
0z"/>
<path d="M2425 3252 c-3 -3 -5 -9 -5 -14 0 -12 88 -10 95 2 3 6 0 11 -7 11
-59 5 -78 5 -83 1z"/>
<path d="M2410 3161 c0 -20 101 -24 108 -3 2 8 -12 12 -52 12 -31 0 -56 -4
-56 -9z"/>
<path d="M2410 3082 c-6 -2 -8 -8 -4 -13 7 -12 124 -12 124 1 0 6 -3 10 -7 11
-22 3 -104 4 -113 1z"/>
<path d="M2976 2637 c3 -10 9 -15 12 -12 3 3 0 11 -7 18 -10 9 -11 8 -5 -6z"/>
<path d="M2290 2482 c-6 -2 -10 -8 -10 -13 0 -5 82 -9 192 -9 144 0 189 3 181
11 -11 11 -335 20 -363 11z"/>
<path d="M2255 2392 c-3 -3 -5 -8 -5 -12 0 -10 430 -5 433 5 2 10 -418 17
-428 7z"/>
<path d="M2220 2300 c0 -6 90 -10 250 -10 160 0 250 4 250 10 0 6 -90 10 -250
10 -160 0 -250 -4 -250 -10z"/>
<path d="M2186 2214 c-6 -15 560 -18 569 -4 8 13 27 12 -292 13 -194 2 -274
-1 -277 -9z"/>
<path d="M2145 2130 c-8 -13 -36 -12 332 -14 212 0 322 2 320 9 -5 14 -643 19
-652 5z"/>
<path d="M2014 1882 c-10 -2 -23 -8 -28 -13 -6 -5 45 -9 127 -9 85 0 137 4
137 10 0 6 -10 10 -22 11 -141 3 -198 3 -214 1z"/>
<path d="M2714 1881 c-16 -16 12 -21 128 -21 98 0 129 3 121 11 -11 11 -239
20 -249 10z"/>
<path d="M1589 1773 c-1 -5 0 -43 1 -87 l2 -78 -40 7 c-41 7 -103 -12 -117
-35 -12 -20 3 -23 36 -7 34 16 65 10 103 -18 16 -12 18 -24 14 -90 -3 -50 -1
-75 6 -76 40 -5 239 -4 246 1 11 7 20 115 10 130 -11 18 -44 8 -49 -15 -8 -41
-32 -65 -67 -65 -33 0 -34 1 -34 40 0 37 3 40 44 59 45 20 83 62 71 80 -4 7
-19 3 -43 -9 -64 -35 -72 -29 -72 45 0 61 1 65 23 65 27 0 38 -8 60 -42 10
-16 24 -28 32 -28 21 0 26 31 16 118 -1 9 -32 12 -121 12 -66 0 -120 -3 -121
-7z"/>
<path d="M975 1761 c-3 -5 -2 -12 2 -14 8 -5 9 -369 1 -411 -3 -17 3 -20 42
-21 28 -1 62 -12 90 -28 69 -41 134 -34 173 19 26 34 13 47 -29 29 -19 -8 -37
-14 -39 -15 -10 -1 -61 30 -88 55 l-28 25 3 185 3 185 -62 0 c-34 0 -64 -4
-68 -9z"/>
<path d="M3585 1734 c-22 -22 -15 -56 13 -70 51 -25 97 17 67 62 -18 28 -56
32 -80 8z"/>
<path d="M3145 1646 c-41 -18 -58 -41 -57 -78 1 -39 32 -72 83 -87 42 -13 59
-35 41 -53 -17 -17 -56 -1 -80 35 -34 51 -52 45 -51 -20 1 -29 4 -53 8 -54
113 -10 143 -9 170 7 54 32 62 86 19 131 -13 14 -18 24 -13 23 28 -6 35 17 26
92 -1 4 -13 7 -28 6 -16 0 -41 2 -58 5 -16 3 -44 0 -60 -7z m89 -61 c22 -34
20 -38 -11 -30 -34 8 -53 23 -53 41 0 24 46 16 64 -11z"/>
<path d="M2338 1645 c-4 -4 -68 -7 -142 -7 -88 1 -137 -2 -142 -9 -4 -6 -1
-15 6 -19 10 -6 10 -12 -2 -28 l-14 -21 -13 20 c-9 15 -9 24 -1 34 15 19 5 22
-77 23 -58 2 -73 -1 -73 -12 0 -8 6 -19 14 -23 8 -4 31 -29 50 -55 l36 -47
-34 -35 c-19 -19 -44 -37 -55 -41 -12 -4 -18 -12 -14 -21 4 -10 24 -14 79 -14
71 0 74 1 62 20 -7 10 -9 23 -4 27 4 4 11 1 16 -7 31 -55 74 -100 114 -119 40
-20 55 -22 126 -15 77 6 103 20 60 31 -22 6 -22 6 -24 43 -1 20 3 24 19 22 11
-1 39 0 63 4 36 4 47 12 69 45 22 33 25 47 21 95 -4 42 -11 61 -30 80 -25 25
-96 43 -110 29z m-128 -177 l0 -132 -30 29 c-17 16 -44 53 -61 82 -32 59 -33
56 22 120 26 31 48 44 62 36 4 -2 7 -63 7 -135z m164 90 c19 -45 7 -122 -20
-132 -31 -12 -50 19 -49 81 0 66 8 83 36 83 13 0 25 -11 33 -32z"/>
<path d="M3330 1606 c0 -56 15 -66 38 -27 13 25 24 31 50 31 l33 0 -47 -67
c-27 -38 -56 -79 -66 -92 -27 -36 -23 -56 13 -58 17 -1 54 -17 81 -35 36 -22
62 -32 92 -32 45 0 100 29 92 49 -3 9 6 12 31 11 35 -1 57 18 37 33 -5 3 -9
53 -9 111 l0 105 -60 6 c-33 4 -111 7 -172 8 l-113 1 0 -44z m250 -90 c0 -53
-4 -98 -10 -101 -17 -11 -11 -23 13 -27 20 -3 19 -4 -6 -10 -28 -5 -127 36
-127 53 0 15 110 179 120 179 6 0 10 -39 10 -94z"/>
<path d="M1235 1630 c-60 -24 -91 -101 -69 -166 19 -57 55 -82 118 -82 73 1
137 44 116 78 -6 10 -14 8 -35 -9 -47 -36 -95 -22 -109 32 l-6 27 75 0 c76 0
80 2 76 40 -7 69 -94 110 -166 80z m63 -32 c7 -7 12 -20 12 -30 0 -13 -8 -18
-30 -18 -34 0 -34 -1 -20 34 11 29 20 32 38 14z"/>
<path d="M2559 1601 c-22 -21 -39 -49 -40 -62 -5 -102 39 -159 122 -159 70 0
140 47 119 80 -6 10 -14 8 -35 -9 -47 -36 -95 -22 -109 32 l-6 27 74 0 c81 0
88 5 74 57 -11 41 -62 73 -118 73 -36 0 -48 -6 -81 -39z m99 -3 c7 -7 12 -20
12 -30 0 -13 -8 -18 -30 -18 -34 0 -34 -1 -20 34 11 29 20 32 38 14z"/>
<path d="M2790 1626 c0 -8 3 -17 8 -20 11 -7 5 -177 -7 -189 -21 -21 -10 -27
54 -27 51 0 65 3 65 15 0 8 -4 15 -10 15 -6 0 -10 33 -10 78 0 64 3 79 18 89
35 21 47 0 49 -86 1 -62 -2 -81 -13 -85 -32 -12 0 -26 58 -26 l60 0 -7 28 c-4
15 -8 62 -9 105 -1 70 -4 81 -25 98 -26 21 -72 25 -104 8 -16 -9 -22 -9 -25 0
-6 17 -102 15 -102 -3z"/>
<path d="M3730 1629 c0 -6 9 -18 19 -27 11 -10 39 -61 62 -114 41 -93 44 -98
73 -98 29 0 33 5 71 93 22 50 50 102 62 115 13 13 21 28 18 33 -10 15 -115 11
-115 -5 0 -7 9 -16 20 -19 20 -5 20 -5 -1 -59 -11 -29 -22 -54 -23 -56 -4 -4
-46 94 -46 107 0 6 5 11 10 11 6 0 10 7 10 15 0 12 -16 15 -80 15 -51 0 -80
-4 -80 -11z"/>
<path d="M1122 1074 c-57 -40 4 -124 72 -98 21 8 21 51 1 51 -9 0 -15 -10 -15
-24 0 -25 -19 -30 -38 -11 -16 16 -15 63 2 77 8 7 27 9 43 6 23 -4 24 -4 8 4
-29 14 -48 13 -73 -5z"/>
<path d="M1242 1078 c-33 -41 -7 -108 43 -108 53 0 81 76 39 107 -23 16 -68
17 -82 1z m70 -15 c0 -10 2 -25 3 -33 2 -23 -14 -50 -30 -50 -26 0 -41 58 -22
88 12 18 47 15 49 -5z"/>
<path d="M1359 1076 c6 -7 10 -27 9 -44 -3 -43 16 -60 66 -60 l42 0 -1 46 c-1
26 3 53 8 60 7 9 1 12 -23 12 -27 0 -30 -3 -21 -14 6 -8 10 -31 9 -53 -3 -35
-6 -39 -25 -35 -13 2 -24 9 -25 16 -5 37 -3 63 5 74 7 9 1 12 -23 12 -26 0
-30 -3 -21 -14z"/>
<path d="M1505 1043 c1 -27 -2 -54 -8 -60 -7 -10 -1 -13 24 -13 24 0 30 3 20
9 -9 6 -11 16 -7 27 7 17 9 16 28 -8 11 -16 26 -28 34 -28 20 0 17 14 -5 34
-16 14 -18 22 -9 36 19 30 3 50 -40 50 l-39 0 2 -47z m53 15 c-5 -32 -28 -36
-26 -4 1 14 8 26 16 26 8 0 12 -9 10 -22z"/>
<path d="M1635 1067 c8 -13 12 -27 8 -32 -5 -4 -3 -5 3 -2 6 3 16 -9 23 -29
14 -39 27 -37 36 6 11 48 28 49 23 1 -3 -37 -1 -41 19 -41 19 0 21 3 14 23 -5
12 -8 39 -7 60 1 51 -28 51 -45 0 l-12 -37 -19 37 c-12 24 -26 37 -38 37 -19
0 -19 -2 -5 -23z"/>
<path d="M1779 1081 c9 -6 12 -25 10 -60 l-4 -51 36 0 c23 0 39 5 43 15 4 12
2 13 -15 2 -16 -10 -21 -9 -29 3 -12 19 -2 33 20 27 12 -3 17 0 14 8 -3 7 -14
11 -24 8 -14 -4 -18 1 -16 20 1 22 5 25 47 25 l47 0 -1 -42 c0 -22 -4 -47 -10
-53 -7 -10 -2 -13 22 -13 23 0 30 3 24 13 -4 6 -8 31 -8 55 -1 37 2 43 17 39
10 -3 18 -1 18 4 0 4 -46 8 -102 8 -58 0 -97 -4 -89 -8z"/>
<path d="M2045 1043 c1 -27 -2 -54 -7 -60 -8 -10 -2 -13 23 -13 24 0 30 3 20
9 -18 12 -6 45 14 37 9 -3 15 0 15 8 0 9 -7 12 -20 9 -16 -4 -20 0 -20 22 0
24 3 27 25 23 14 -3 25 -1 25 3 0 5 -18 9 -39 9 l-39 0 3 -47z"/>
<path d="M2135 1043 c1 -27 -2 -54 -7 -60 -8 -10 -2 -13 23 -13 19 0 30 4 24
8 -14 10 -18 42 -6 42 6 0 18 -11 27 -25 9 -14 23 -25 30 -25 20 0 17 14 -6
35 -14 13 -17 22 -10 29 29 29 4 56 -50 56 -27 0 -28 -2 -25 -47z m50 14 c0
-26 -20 -25 -23 2 -3 16 1 22 10 19 7 -3 13 -12 13 -21z"/>
<path d="M2264 1043 c1 -27 -2 -54 -7 -60 -7 -10 2 -13 37 -13 25 0 46 4 46 9
0 4 -11 6 -25 3 -20 -3 -25 0 -25 17 0 14 6 21 20 21 11 0 20 4 20 9 0 5 -9 7
-20 4 -16 -4 -20 0 -20 22 0 24 3 27 25 23 14 -3 25 -1 25 3 0 5 -17 9 -39 9
l-39 0 2 -47z"/>
<path d="M2358 1077 c6 -6 9 -33 8 -60 -3 -35 0 -47 11 -47 9 0 11 5 6 13 -10
16 -12 57 -3 62 4 3 23 -13 41 -35 19 -22 36 -40 39 -40 8 0 3 81 -6 88 -4 4
-4 -1 -1 -10 11 -32 -10 -28 -38 7 -15 19 -36 35 -47 35 -15 0 -18 -3 -10 -13z"/>
<path d="M2445 1080 c3 -5 12 -7 20 -3 21 7 19 13 -6 13 -11 0 -18 -4 -14 -10z"/>
<path d="M2504 1068 c-26 -27 -27 -55 -4 -78 25 -25 63 -26 81 -2 13 15 12 16
-3 4 -39 -31 -83 21 -58 67 13 26 45 27 59 4 10 -17 10 -17 11 0 0 9 5 17 10
17 15 0 13 -97 -2 -103 -7 -3 3 -6 22 -6 19 0 31 3 25 7 -5 4 -11 15 -11 25
-1 13 6 17 28 17 27 0 30 -3 26 -25 -5 -21 -1 -25 20 -25 18 0 22 3 15 13 -12
14 -11 76 0 95 6 9 -1 12 -25 11 -18 0 -27 -3 -20 -6 6 -2 12 -16 12 -29 0
-22 -4 -25 -27 -22 -28 3 -37 22 -21 45 7 8 -8 11 -56 11 -51 0 -69 -4 -82
-20z"/>
<path d="M2795 1030 c0 -54 2 -60 21 -60 17 0 20 5 16 25 -2 14 0 25 5 25 5 0
16 -11 23 -25 7 -14 22 -25 32 -25 19 0 19 1 0 28 -15 20 -18 32 -10 45 14 27
-8 47 -51 47 l-36 0 0 -60z m60 25 c0 -10 -6 -20 -12 -22 -8 -3 -13 5 -13 22
0 17 5 25 13 23 6 -3 12 -13 12 -23z"/>
<path d="M2925 1030 l0 -60 38 0 c20 0 37 4 37 8 0 5 -10 8 -21 8 -14 -1 -23
6 -25 18 -2 14 2 17 21 14 15 -3 22 -1 18 7 -2 7 -11 12 -20 11 -10 -1 -17 8
-18 22 -1 20 2 23 22 19 12 -2 23 0 23 4 0 5 -17 9 -37 9 l-38 0 0 -60z"/>
<path d="M3022 1078 c-19 -19 -14 -35 16 -56 21 -16 24 -23 15 -33 -10 -10
-15 -9 -28 1 -12 10 -15 10 -15 -2 0 -13 26 -17 63 -10 18 4 5 49 -18 62 -26
14 -34 40 -12 40 7 0 19 -6 26 -12 10 -11 11 -10 6 5 -8 20 -35 23 -53 5z"/>
<path d="M3090 1081 c0 -5 9 -7 21 -4 20 6 21 3 18 -51 -4 -52 -2 -56 18 -56
19 0 21 4 15 28 -13 52 -8 77 15 76 12 0 20 3 17 8 -7 11 -104 10 -104 -1z"/>
<path d="M3222 1030 c-12 -33 -16 -60 -11 -60 5 0 9 9 9 21 0 15 5 20 23 17
14 -2 21 -9 21 -21 -1 -12 5 -17 21 -17 l24 0 -26 60 c-15 33 -30 60 -34 60
-4 0 -16 -27 -27 -60z m24 -7 c-10 -10 -19 5 -10 18 6 11 8 11 12 0 2 -7 1
-15 -2 -18z"/>
<path d="M3315 1079 c4 -6 7 -26 7 -45 0 -51 15 -60 104 -62 44 -1 75 1 69 6
-13 9 -16 42 -4 42 5 0 16 -11 25 -25 9 -14 25 -25 35 -25 19 0 19 1 -2 29
-16 22 -19 33 -10 48 14 27 -4 43 -49 43 l-35 0 2 -55 c2 -44 -1 -55 -13 -55
-13 0 -15 10 -12 55 3 50 1 55 -17 55 -17 0 -20 -7 -20 -47 0 -41 -3 -48 -20
-48 -17 0 -20 7 -20 48 0 42 -2 47 -23 47 -14 0 -21 -4 -17 -11z m198 -12 c6
-16 -9 -45 -18 -36 -3 4 -7 16 -10 28 -4 23 19 30 28 8z"/>
<path d="M3602 1030 c-11 -33 -16 -60 -11 -60 5 0 9 9 9 20 0 13 7 20 19 20
11 0 23 -9 26 -20 3 -11 15 -20 25 -20 17 0 16 4 -6 57 -12 32 -27 59 -32 61
-6 2 -19 -24 -30 -58z m24 -7 c-10 -10 -19 5 -10 18 6 11 8 11 12 0 2 -7 1
-15 -2 -18z"/>
<path d="M3708 1083 c6 -2 12 -11 12 -19 0 -8 5 -14 11 -14 6 0 28 -19 49 -42
l38 -43 3 63 c3 39 0 62 -6 62 -7 0 -9 -16 -7 -37 l4 -38 -37 38 c-21 22 -45
37 -58 36 -12 0 -16 -3 -9 -6z"/>
<path d="M3840 1081 c0 -5 8 -7 19 -4 16 4 19 -1 18 -44 -1 -26 -6 -51 -12
-55 -5 -4 5 -8 23 -8 24 0 31 3 25 13 -4 6 -8 31 -8 55 0 36 2 42 17 39 10 -3
18 -1 18 4 0 5 -22 9 -50 9 -27 0 -50 -4 -50 -9z"/>
<path d="M3722 1015 c-1 -14 2 -25 6 -25 5 0 8 9 7 20 -2 29 -10 33 -13 5z"/>
<path d="M1628 998 c-4 -24 -2 -28 16 -28 13 0 16 3 10 8 -7 4 -14 16 -16 27
-3 17 -5 15 -10 -7z"/>
<path d="M3718 973 c7 -3 16 -2 19 1 4 3 -2 6 -13 5 -11 0 -14 -3 -6 -6z"/>
</g>
</svg>
